# xmcd CD database file generated by Grip 3.3.1
# 
# Track frame offsets:
#       150
#       182314
#       270464
#       304471
# 
# Disc length: 4366 seconds
# 
# Revision: 1
# Processed by: cddbd v1.5.2PL0 Copyright (c) Steve Scherf et al.
# Submitted via: Grip 3.3.1
# 
DISCID=2c110c04
DTITLE=Steve Roach - Dynamic Stillness - Disc 1
DYEAR=2009
DGENRE=Ambient
TTITLE0=Birth Of Still Places
TTITLE1=Long Tide
TTITLE2=A Darker Light
TTITLE3=Opening Sky
EXTD=YEAR: 2009
EXTT0=
EXTT1=
EXTT2=
EXTT3=
PLAYORDER=
